<?xml version="1.0" encoding="UTF-8"?>
<svg width="30px" height="30px" viewBox="0 0 30 30" version="1.1" xmlns="http://www.w3.org/2000/svg" xmlns:xlink="http://www.w3.org/1999/xlink">
    <!-- Generator: Sketch 52.6 (67491) - http://www.bohemiancoding.com/sketch -->
    <title>distance</title>
    <desc>Created with Sketch.</desc>
    <g id="CycleDiary" stroke="none" stroke-width="1" fill="none" fill-rule="evenodd">
        <g id="Event" transform="translate(-434.000000, -261.000000)" fill="#539FFC" fill-rule="nonzero">
            <g id="Event-Section" transform="translate(35.000000, 187.000000)">
                <g id="Group" transform="translate(0.566496, 23.500000)">
                    <g id="Details" transform="translate(30.000000, 49.914062)">
                        <g id="Distance-|-Ascend" transform="translate(368.216752, 0.291016)">
                            <g id="distance" transform="translate(0.926628, 0.794922)">
                                <path d="M24.3200197,0 C21.6380556,0 19.4560385,2.18201706 19.4560385,4.86398113 C19.4560385,7.1903792 22.9027716,11.8988643 23.7103476,12.9705214 C23.7101196,13.3166824 23.7103476,13.6565734 23.7019686,13.9685344 C23.6930766,14.3039794 23.9578987,14.5836784 24.2939137,14.5925704 C24.2992717,14.5925704 24.3046297,14.5925704 24.3105577,14.5925704 C24.6383077,14.5925704 24.9090577,14.3307124 24.9179497,14.0006254 C24.9263287,13.6805134 24.9261007,13.3311034 24.9263287,12.9750814 C25.7285467,11.9107773 29.1840008,7.1931152 29.1840008,4.86398113 C29.1840008,2.18201706 27.0019837,0 24.3200197,0 Z M24.3200197,11.7503223 C22.9834836,9.91150227 20.6720196,6.41193017 20.6720196,4.86398113 C20.6720196,2.85233708 22.3083756,1.21598103 24.3200197,1.21598103 C26.3316637,1.21598103 27.9680198,2.85233708 27.9680198,4.86398113 C27.9680198,6.41193017 25.6565557,9.91144527 24.3200197,11.7503223 Z" id="Shape"></path>
                                <path d="M24.3200197,3.6480001 C23.6496996,3.6480001 23.1040386,4.19366111 23.1040386,4.86398113 C23.1040386,5.53430115 23.6496996,6.07996217 24.3200197,6.07996217 C24.9903397,6.07996217 25.5360007,5.53435815 25.5360007,4.86398113 C25.5360007,4.19366111 24.9903397,3.6480001 24.3200197,3.6480001 Z" id="Shape"></path>
                                <path d="M7.2960002,13.3760194 C5.28435614,13.3760194 3.6480001,15.0123754 3.6480001,17.0240195 C3.6480001,19.0356635 5.28435614,20.6720196 7.2960002,20.6720196 C9.30764425,20.6720196 10.9440003,19.0356635 10.9440003,17.0240195 C10.9440003,15.0123754 9.30764425,13.3760194 7.2960002,13.3760194 Z M7.2960002,19.4559815 C5.95473316,19.4559815 4.86398113,18.3652865 4.86398113,17.0239625 C4.86398113,15.6826384 5.95473316,14.5920004 7.2960002,14.5920004 C8.63726723,14.5920004 9.72801926,15.6826954 9.72801926,17.0240195 C9.72801926,18.3653435 8.63726723,19.4559815 7.2960002,19.4559815 Z" id="Shape"></path>
                                <path d="M16.5056614,21.9129666 C16.1909644,21.7906446 15.8406424,21.9468246 15.7189474,22.2603246 C15.4464304,22.9645026 15.1056274,23.7856446 14.6460364,24.5379307 C14.4708754,24.8246977 14.5617334,25.1987887 14.8479304,25.3739497 C14.9471104,25.4345407 15.0563224,25.4630407 15.1643944,25.4630407 C15.3692524,25.4630407 15.5693224,25.3596997 15.6839494,25.1721127 C16.1934154,24.3372907 16.5608945,23.4537906 16.8530195,22.6997376 C16.9741445,22.3867506 16.8185915,22.0346616 16.5056614,21.9129666 Z" id="Shape"></path>
                                <path d="M13.0773394,26.3500177 C12.4681233,26.8327507 11.7758583,27.1961257 10.9600173,27.4615177 C10.6405893,27.5654287 10.4659983,27.9086258 10.5699093,28.2280538 C10.6536423,28.4845538 10.8917313,28.6478588 11.1482313,28.6478588 C11.2105893,28.6478588 11.2740873,28.6383398 11.3364453,28.6181618 C12.2787123,28.3117868 13.1182654,27.8694668 13.8325894,27.3035707 C14.0956444,27.0945517 14.1401614,26.7121957 13.9317694,26.4491407 C13.7215534,26.1867697 13.3397674,26.1398587 13.0773394,26.3500177 Z" id="Shape"></path>
                                <path d="M18.6105005,17.5233395 C17.6070725,18.0927695 17.0495555,19.0813205 16.7170175,19.7748395 C16.5715535,20.0776805 16.6991765,20.4410556 17.0020175,20.5858926 C17.0869475,20.6268756 17.1766085,20.6458566 17.2644455,20.6458566 C17.4912485,20.6458566 17.7085895,20.5188036 17.8130705,20.3008926 C18.2352125,19.4203565 18.6663035,18.8901425 19.2113375,18.5801765 C19.5028925,18.4145345 19.6056065,18.0434075 19.4393375,17.7512825 C19.2743225,17.4592145 18.9043925,17.3565005 18.6105005,17.5233395 Z" id="Shape"></path>
                                <path d="M24.0943567,16.0181974 C23.8182486,15.8311804 23.4388566,15.9030004 23.2500156,16.1808754 C23.0499456,16.4765914 22.6402296,16.8832865 21.4010496,16.9943225 C21.0667446,17.0245895 20.8197636,17.3196785 20.8500306,17.6545535 C20.8785306,17.9704475 21.1439226,18.2079095 21.4550856,18.2079095 C21.4734966,18.2079095 21.4919076,18.2073395 21.5103186,18.2055155 C22.8266766,18.0873545 23.7249966,17.6479985 24.2570347,16.8624245 C24.4453057,16.5846065 24.3722317,16.2064114 24.0943567,16.0181974 Z" id="Shape"></path>
                                <path d="M8.73667524,27.9758858 C10.6551243,25.9300417 14.5920004,21.2234376 14.5920004,17.0240195 C14.5920004,12.9330724 11.3869473,9.72801926 7.2960002,9.72801926 C3.20505309,9.72801926 0,12.9330724 0,17.0240195 C0,22.4538396 6.59775018,28.7523398 6.87858919,29.0177888 C6.99555319,29.1288248 7.14580519,29.1840578 7.2960002,29.1840578 C7.73894721,29.1840578 8.15989222,29.1686108 8.55889223,29.1383438 C8.89376724,29.1128078 9.14490925,28.8212528 9.11937325,28.4863778 C9.10113325,28.2466928 8.94603624,28.0597898 8.73667524,27.9758858 Z M7.2960002,27.7186448 C5.85971416,26.2532887 1.21598103,21.1921446 1.21598103,17.0240195 C1.21598103,13.6146784 3.88671611,10.9440003 7.2960002,10.9440003 C10.7052843,10.9440003 13.3760194,13.6146784 13.3760194,17.0240195 C13.3760194,21.1921446 8.73228624,26.2532317 7.2960002,27.7186448 Z" id="Shape"></path>
                            </g>
                        </g>
                    </g>
                </g>
            </g>
        </g>
    </g>
</svg>