<?xml version="1.0" encoding="UTF-8"?>
<svg width="21px" height="26px" viewBox="0 0 21 26" version="1.1" xmlns="http://www.w3.org/2000/svg" xmlns:xlink="http://www.w3.org/1999/xlink">
    <!-- Generator: Sketch 52.6 (67491) - http://www.bohemiancoding.com/sketch -->
    <title>placeholder</title>
    <desc>Created with Sketch.</desc>
    <g id="CycleDiary" stroke="none" stroke-width="1" fill="none" fill-rule="evenodd">
        <g id="Event" transform="translate(-777.000000, -262.000000)" fill="#539FFC" fill-rule="nonzero">
            <g id="Event-Section" transform="translate(35.000000, 187.000000)">
                <g id="Group" transform="translate(0.566496, 23.500000)">
                    <g id="Details" transform="translate(30.000000, 49.914062)">
                        <g id="Location" transform="translate(703.433504, 1.791016)">
                            <g id="placeholder" transform="translate(8.200782, 0.400000)">
                                <path d="M9.95279978,0 C4.4719999,0 0.0103999998,4.4615999 0.0103999998,9.94239978 C0.0103999998,10.5663998 0.0675999985,11.1955998 0.187199996,11.8091997 C0.192399996,11.8455997 0.213199995,11.9547997 0.254799994,12.1419997 C0.405599991,12.8127997 0.629199986,13.4731997 0.92039998,14.1023997 C1.99159996,16.6243996 4.34719991,20.4983996 9.51599979,24.6479995 C9.64599979,24.7519995 9.80199979,24.8039995 9.95799978,24.8039995 C10.1139998,24.8039995 10.2699998,24.7519995 10.3999998,24.6479995 C15.5635997,20.4983996 17.9243996,16.6243996 18.9955996,14.1023997 C19.2867996,13.4731997 19.5103996,12.8179997 19.6611996,12.1419997 C19.7027996,11.9547997 19.7235996,11.8455997 19.7287996,11.8091997 C19.8431996,11.1955998 19.9055996,10.5663998 19.9055996,9.94239978 C19.8951996,4.4615999 15.4335997,0 9.95279978,0 Z M18.3351996,11.5647997 C18.3351996,11.5751997 18.3299996,11.5855997 18.3299996,11.5959997 C18.3247996,11.6219997 18.3091996,11.6999997 18.2831996,11.8195997 C18.2831996,11.8247997 18.2831996,11.8247997 18.2831996,11.8299997 C18.1531996,12.4123997 17.9607996,12.9791997 17.7059996,13.5251997 C17.7007996,13.5303997 17.7007996,13.5407997 17.6955996,13.5459997 C16.7231996,15.8495997 14.5911997,19.3647996 9.95279978,23.1971995 C5.31439988,19.3647996 3.18239993,15.8495997 2.20999995,13.5459997 C2.20479995,13.5407997 2.20479995,13.5303997 2.19959995,13.5251997 C1.94999996,12.9843997 1.75759996,12.4123997 1.62239996,11.8299997 C1.62239996,11.8247997 1.62239996,11.8247997 1.62239996,11.8195997 C1.59119997,11.6999997 1.58079997,11.6219997 1.57559997,11.5959997 C1.57559997,11.5855997 1.57039997,11.5751997 1.57039997,11.5595997 C1.46639997,11.0239998 1.41439997,10.4831998 1.41439997,9.93719978 C1.41439997,5.23119989 5.24679989,1.39879997 9.95279978,1.39879997 C14.6587997,1.39879997 18.4911996,5.23119989 18.4911996,9.93719978 C18.4911996,10.4883998 18.4391996,11.0343998 18.3351996,11.5647997 Z" id="Shape"></path>
                                <path d="M9.95279978,3.73879992 C6.47399986,3.73879992 3.63999992,6.57279986 3.63999992,10.0515998 C3.63999992,13.5303997 6.47399986,16.3643996 9.95279978,16.3643996 C13.4315997,16.3643996 16.2655996,13.5303997 16.2655996,10.0515998 C16.2655996,6.57279986 13.4315997,3.73879992 9.95279978,3.73879992 Z M9.95279978,14.9603997 C7.24359984,14.9603997 5.04399989,12.7555997 5.04399989,10.0515998 C5.04399989,7.34759984 7.24879984,5.14279989 9.95279978,5.14279989 C12.6567997,5.14279989 14.8615997,7.34759984 14.8615997,10.0515998 C14.8615997,12.7555997 12.6619997,14.9603997 9.95279978,14.9603997 Z" id="Shape"></path>
                            </g>
                        </g>
                    </g>
                </g>
            </g>
        </g>
    </g>
</svg>