<?xml version="1.0" encoding="UTF-8"?>
<svg width="212px" height="29px" viewBox="0 0 212 29" version="1.1" xmlns="http://www.w3.org/2000/svg" xmlns:xlink="http://www.w3.org/1999/xlink">
    <!-- Generator: Sketch 52.6 (67491) - http://www.bohemiancoding.com/sketch -->
    <title>Logo</title>
    <desc>Created with Sketch.</desc>
    <defs>
        <polygon id="path-1" points="0 0.306775252 39.0149802 0.306775252 39.0149802 13.390087 28.8404154 29.4060893 31.6155874 29.4060893 31.6155874 36.0175167 0 36.0175167"></polygon>
    </defs>
    <g id="CycleDiary" stroke="none" stroke-width="1" fill="none" fill-rule="evenodd">
        <g id="Event" transform="translate(-37.000000, -27.000000)">
            <g id="Header">
                <g id="Logo" transform="translate(36.828215, 19.500000)">
                    <g id="Icon-Gear" transform="translate(193.040869, 0.000000)">
                        <mask id="mask-2" fill="white">
                            <use xlink:href="#path-1"></use>
                        </mask>
                        <g id="Mask" transform="translate(19.507490, 18.162146) scale(-1, -1) translate(-19.507490, -18.162146) "></g>
                        <g id="gear" mask="url(#mask-2)" fill="#FFFFFF" fill-rule="nonzero">
                            <g transform="translate(-9.073064, 6.726721)" id="Shape">
                                <path d="M27.9890555,17.5850984 C26.9655619,16.8839262 26.3785841,15.7701895 26.3785841,14.5296015 C26.3785841,13.2890136 26.9655619,12.1752769 27.9890555,11.4741046 C28.1967282,11.3318723 28.2858363,11.0698266 28.2080796,10.8304836 L27.6941477,9.24890146 C27.616391,9.0095017 27.3888534,8.85149105 27.1386699,8.85693969 C25.8972873,8.89082344 24.7689641,8.33528887 24.0397541,7.3316034 C23.3104872,6.32791792 23.1307388,5.08188135 23.5466519,3.91303388 C23.6309923,3.67596115 23.5491492,3.41153169 23.3455061,3.26362373 L22.0001453,2.28615985 C21.7965023,2.13830865 21.5198701,2.14199783 21.3203136,2.29558146 C20.337174,3.05226178 19.0966428,3.26646156 17.9166711,2.8830133 C16.736756,2.4996218 15.8589569,1.59724703 15.5083708,0.407172561 C15.4371979,0.165729562 15.2156197,0 14.9639038,0 L13.3009325,0 C13.0492165,0 12.8276384,0.165729562 12.756579,0.407286075 C12.4059929,1.59736055 11.5281937,2.49973531 10.3482787,2.88312681 C9.1683637,3.26651832 7.92771901,3.05237529 6.94463622,2.29569498 C6.74507967,2.14211135 6.46844751,2.13842216 6.26480448,2.28627336 L4.91944367,3.26373724 C4.71580064,3.4116452 4.63395748,3.6760179 4.71829793,3.91314739 C5.13421102,5.08199486 4.95446256,6.32803144 4.22519573,7.33171691 C3.49598565,8.33540238 2.36681112,8.89122074 1.12627994,8.85705321 C0.876039655,8.85058294 0.64861556,9.00967197 0.570802125,9.24901497 L0.0568702128,10.8305972 C-0.0208864654,11.0699402 0.0682215526,11.3319858 0.275894316,11.4742181 C1.29933112,12.1753904 1.88636566,13.2890703 1.88636566,14.529715 C1.88636566,15.7703597 1.29944463,16.8840397 0.275780802,17.5853255 C0.0681080392,17.7275577 -0.0209999788,17.9896034 0.0567566994,18.2289464 L0.570688612,19.8105286 C0.648502047,20.0499284 0.875528844,20.2099255 1.12616643,20.2024904 C2.36630031,20.1679256 3.49581538,20.7240844 4.22508221,21.7278267 C4.95434904,22.7315121 5.13409751,23.9775487 4.71818442,25.1463962 C4.63384396,25.3834689 4.71568712,25.6478984 4.91933016,25.7958063 L6.26469096,26.7732702 C6.46827724,26.9211214 6.7449094,26.9173755 6.94452271,26.7638486 C7.92771901,26.0072251 9.1683637,25.793082 10.3481652,26.1764168 C11.5280802,26.5598083 12.4058793,27.462183 12.7564655,28.6522575 C12.8276384,28.8937005 13.0492165,29.0594301 13.3009325,29.0594301 L14.9639038,29.0594301 C15.2156197,29.0594301 15.4371979,28.8937005 15.5084276,28.6520305 C15.8590137,27.461956 16.7368128,26.5595812 17.9167278,26.1761897 C19.0965861,25.7926847 20.3372308,26.0069413 21.3203703,26.7636216 C21.5199269,26.9172052 21.796559,26.9208944 22.0002021,26.7730432 L23.3455629,25.7955793 C23.5492059,25.6476714 23.6310491,25.3832987 23.5467086,25.1461692 C23.1307955,23.9773217 23.310544,22.7312851 24.0398108,21.7275996 C24.7690209,20.7239142 25.8979116,20.1682661 27.1387266,20.2022634 C27.3893642,20.2086769 27.616391,20.0496446 27.6942044,19.8103016 L28.2080796,18.2287194 C28.2858363,17.9893764 28.1967282,17.7273307 27.9890555,17.5850984 Z M26.7395,19.074905 C25.3046906,19.1627076 23.9751649,19.8852772 23.1213172,21.0605382 C22.2674694,22.2357991 21.9910642,23.7235057 22.3509585,25.1152368 L21.6601727,25.6170795 C20.4477928,24.8447911 18.9474295,24.6478453 17.5658579,25.0967908 C16.1842863,25.5457363 15.0861577,26.5868245 14.559342,27.9242961 L13.7054375,27.9242961 C13.1785651,26.5868245 12.0804932,25.5457363 10.6989216,25.0967908 C9.31735004,24.6479021 7.81698669,24.8448478 6.60460683,25.6170795 L5.91382105,25.1152368 C6.27371528,23.7235057 5.99731015,22.2357991 5.14346237,21.0605382 C4.28955782,19.8852204 2.96020241,19.1625941 1.52527954,19.074905 L1.2614744,18.2628869 C2.37067058,17.3485365 3.02149965,15.9824028 3.02149965,14.5297718 C3.02149965,13.0771408 2.37067058,11.7110638 1.2614744,10.7966566 L1.52527954,9.98463855 C2.9600889,9.89683594 4.28961458,9.1742664 5.14346237,7.99900542 C5.99731015,6.82374445 6.27371528,5.33603785 5.91382105,3.94430682 L6.60460683,3.44246409 C7.81698669,4.21475249 9.31735004,4.41164148 10.6989216,3.96275275 C12.0804932,3.51380726 13.1786218,2.47271912 13.7054375,1.1352475 L14.559342,1.1352475 C15.0862145,2.47271912 16.1842863,3.51380726 17.5658579,3.96275275 C18.947543,4.41169824 20.4478496,4.21475249 21.6601727,3.44246409 L22.3509585,3.94430682 C21.9910642,5.33603785 22.2674694,6.82374445 23.1213172,7.99900542 C23.9752217,9.17432315 25.3045771,9.89694945 26.7395,9.98463855 L27.0033051,10.7966566 C25.8941089,11.7110071 25.2432799,13.0771408 25.2432799,14.5297718 C25.2432799,15.9824028 25.8941089,17.3484798 27.0033051,18.2628869 L26.7395,19.074905 Z"></path>
                                <path d="M14.1323614,12.5999873 C13.0682868,12.5999873 12.2026336,13.4656404 12.2026336,14.529715 C12.2026336,15.5937896 13.0682868,16.4594428 14.1323614,16.4594428 C15.196436,16.4594428 16.0620892,15.5937896 16.0620892,14.529715 C16.0620892,13.4656404 15.196436,12.5999873 14.1323614,12.5999873 Z M14.1323614,15.3243088 C13.6941997,15.3243088 13.3377676,14.9678768 13.3377676,14.529715 C13.3377676,14.0915533 13.6941997,13.7351212 14.1323614,13.7351212 C14.5705231,13.7351212 14.9269552,14.0915533 14.9269552,14.529715 C14.9269552,14.9678768 14.5705799,15.3243088 14.1323614,15.3243088 Z"></path>
                                <path d="M13.1714705,8.11223504 C13.0659598,8.00666758 12.9195275,7.94593791 12.7702574,7.94593791 C12.6209872,7.94593791 12.474555,8.00666758 12.3689875,8.11223504 C12.2633633,8.2178025 12.2026904,8.36423478 12.2026904,8.5135049 C12.2026904,8.66277502 12.26342,8.80920731 12.3689875,8.91477477 C12.474555,9.02034223 12.6209872,9.0810719 12.7702574,9.0810719 C12.9195275,9.0810719 13.0659598,9.02034223 13.1714705,8.91477477 C13.2770947,8.80920731 13.3378243,8.66277502 13.3378243,8.5135049 C13.3378243,8.36423478 13.2770379,8.2178025 13.1714705,8.11223504 Z"></path>
                                <path d="M12.7702006,6.86756062 C13.0836111,6.86756062 13.3377676,6.61346088 13.3377676,6.29999363 L13.3377676,5.55035114 C13.3377676,5.38507564 13.2656866,5.22802985 13.1405381,5.12019212 C13.0152193,5.01235439 12.8491492,4.96428147 12.6858034,4.98908414 C10.6392136,5.29698924 8.78026139,6.23688018 7.30992234,7.70721923 C5.83946977,9.17755829 4.89957883,11.0365105 4.59173049,13.0831003 C4.56715484,13.2465596 4.61505749,13.4125729 4.72283847,13.537835 C4.8306762,13.663097 4.98772198,13.7351212 5.15299749,13.7351212 L11.0111402,13.7351212 C11.2366913,13.7351212 11.4408452,13.601516 11.5312019,13.3948081 C11.8187313,12.7368844 12.339474,12.2161417 12.9975112,11.9285555 C13.2041623,11.8381988 13.3377676,11.634045 13.3377676,11.4084939 L13.3377676,10.6135028 C13.3377676,10.3000355 13.0836111,10.0459358 12.7702006,10.0459358 C12.4567901,10.0459358 12.2026336,10.3000355 12.2026336,10.6135028 L12.2026336,11.0567158 C11.5530532,11.4173479 11.0199943,11.9504068 10.6593622,12.5999873 L5.83918599,12.5999873 C6.57021227,9.46730124 9.06994758,6.96762268 12.2026336,6.23653964 L12.2026336,6.29999363 C12.2026336,6.61346088 12.4568469,6.86756062 12.7702006,6.86756062 Z"></path>
                                <path d="M23.5418843,15.5215951 C23.4340466,15.3963331 23.2770008,15.3243088 23.1117253,15.3243088 L17.2535826,15.3243088 C17.0279747,15.3243088 16.8238776,15.4579141 16.7335209,15.664622 C16.4459915,16.3225457 15.9252488,16.8432884 15.2672116,17.1308746 C15.0605604,17.2212312 14.9269552,17.4253851 14.9269552,17.6509362 L14.9269552,23.5090789 C14.9269552,23.6743544 14.9990362,23.831457 15.1242415,23.939238 C15.227936,24.0284595 15.3595547,24.0766459 15.4945222,24.0766459 C15.52256,24.0766459 15.5508248,24.0745459 15.5789761,24.0703459 C16.7358479,23.8963299 17.8395387,23.5169681 18.8595134,22.9427038 C19.1326834,22.7888932 19.2294535,22.4428476 19.0756429,22.1696776 C18.9218322,21.8965076 18.5757299,21.7998509 18.3026166,21.9535481 C17.5968471,22.3509017 16.8457857,22.6424609 16.0621459,22.823685 L16.0621459,18.002771 C16.7117263,17.6421389 17.2447853,17.10908 17.6054173,16.4594996 L22.4263314,16.4594996 C22.2330748,17.2955258 21.9146697,18.0935249 21.476054,18.8391945 C21.3170784,19.1093564 21.4073216,19.4572182 21.6774835,19.6161369 C21.9477589,19.7749989 22.2955072,19.6848125 22.4544259,19.4146506 C23.0797145,18.3516544 23.4897249,17.1948394 23.6729923,15.9763298 C23.6976247,15.8128705 23.6496653,15.6468571 23.5418843,15.5215951 Z"></path>
                                <path d="M20.9519058,20.5560846 C20.7312358,20.3333713 20.3719091,20.3317821 20.1492526,20.5524522 L20.1308634,20.5707278 C19.9082637,20.7913979 19.9066177,21.1507246 20.1272878,21.3733811 C20.2383039,21.4853621 20.3843388,21.5414377 20.5304306,21.5414377 C20.6747629,21.5414377 20.8192087,21.4866675 20.929941,21.3770135 L20.9483302,21.3587379 C21.1709299,21.1380678 21.1725759,20.7787411 20.9519058,20.5560846 Z"></path>
                                <path d="M23.6731058,13.0831003 C23.3652575,11.0365105 22.4253098,9.17755829 20.9549139,7.70721923 C19.4845749,6.23688018 17.6256227,5.29693248 15.5790329,4.98908414 C15.4151763,4.96433822 15.2495603,5.01235439 15.1242982,5.12019212 C14.9990929,5.22802985 14.9270119,5.38507564 14.9270119,5.55035114 L14.9270119,11.4084939 C14.9270119,11.634045 15.0605604,11.8381988 15.2672683,11.9285555 C15.9253055,12.2161417 16.4460482,12.7368844 16.7335777,13.3948081 C16.8239343,13.601516 17.0280314,13.7351212 17.2536393,13.7351212 L23.111782,13.7351212 C23.2770575,13.7351212 23.4341033,13.663097 23.5419978,13.537835 C23.6498355,13.4125729 23.6977382,13.2465596 23.6731058,13.0831003 Z M17.6054173,12.5999873 C17.244842,11.9504068 16.7117263,11.4173479 16.0621459,11.0567158 L16.0621459,6.23653964 C19.1948319,6.96762268 21.6945672,9.46730124 22.4255935,12.5999873 L17.6054173,12.5999873 Z"></path>
                                <path d="M12.9975679,17.1308746 C12.3395308,16.8432884 11.818788,16.3225457 11.5312586,15.664622 C11.4409019,15.4579141 11.2368049,15.3243088 11.011197,15.3243088 L5.15299749,15.3243088 C4.98772198,15.3243088 4.8306762,15.3963331 4.72283847,15.5215951 C4.61500074,15.6468571 4.56709808,15.8128705 4.59173049,15.9763298 C4.89957883,18.0229196 5.83952653,19.8818718 7.30992234,21.3522108 C8.78026139,22.8225499 10.6392136,23.7624976 12.6858034,24.0703459 C12.7139547,24.0745459 12.7421628,24.0766459 12.7702006,24.0766459 C12.905168,24.0766459 13.0367868,24.0284595 13.1404813,23.9391812 C13.2656866,23.8313435 13.3377676,23.6742977 13.3377676,23.5090222 L13.3377676,17.6509362 C13.3377676,17.4253851 13.2042191,17.2212312 12.9975679,17.1308746 Z M12.2026904,22.8228904 C9.06994758,22.0918074 6.57026903,19.5921288 5.83924274,16.4594428 L10.6594189,16.4594428 C11.0199943,17.1090232 11.5531099,17.6420822 12.2026904,18.0027142 L12.2026904,22.8228904 Z"></path>
                            </g>
                        </g>
                    </g>
                    <path d="M21.5255063,29.0257999 C20.3819581,30.5729534 19.0590496,31.6828513 17.5567411,32.3555267 C16.0544326,33.0282021 14.4288247,33.3645348 12.6798686,33.3645348 C10.8636449,33.3645348 9.19879816,33.0562299 7.68527843,32.4396107 C6.1717587,31.8229916 4.87687791,30.9597377 3.80059721,29.8498232 C2.72431651,28.7399088 1.88348483,27.4170002 1.27807694,25.881058 C0.672669046,24.3451157 0.36996964,22.6690579 0.36996964,20.8528343 C0.36996964,19.0366106 0.672669046,17.3661583 1.27807694,15.8414273 C1.88348483,14.3166963 2.72431651,12.9993934 3.80059721,11.8894789 C4.87687791,10.7795644 6.1717587,9.91070501 7.68527843,9.2828746 C9.19879816,8.65504419 10.8636449,8.3411337 12.6798686,8.3411337 C14.2942896,8.3411337 15.8021811,8.62701647 17.2035883,9.19879059 C18.6049954,9.77056471 19.8326097,10.7291128 20.8864679,12.0744637 L19.0702533,13.5879759 C18.3303103,12.4668501 17.3829732,11.6484406 16.2282138,11.1327228 C15.0734543,10.617005 13.8906844,10.3591499 12.6798686,10.3591499 C11.1327151,10.3591499 9.73693447,10.6282161 8.49248492,11.1663564 C7.24803536,11.7044968 6.18858744,12.4444286 5.31410937,13.3861742 C4.43963131,14.3279199 3.76696596,15.4378177 3.29609316,16.715901 C2.82522035,17.9939843 2.58978748,19.3729483 2.58978748,20.8528343 C2.58978748,22.3327202 2.82522035,23.7116842 3.29609316,24.9897675 C3.76696596,26.2678508 4.43963131,27.3777486 5.31410937,28.3194943 C6.18858744,29.2612399 7.24803536,30.0011717 8.49248492,30.5393121 C9.73693447,31.0774524 11.1327151,31.3465186 12.6798686,31.3465186 C13.2852765,31.3465186 13.9130975,31.2736465 14.5633504,31.1279002 C15.2136033,30.9821538 15.8470298,30.757932 16.463649,30.4552281 C17.0802681,30.1525241 17.6688503,29.7713471 18.2294132,29.3116856 C18.789976,28.852024 19.283264,28.2970751 19.7092917,27.6468222 L21.5255063,29.0257999 Z M30.5393121,22.5008808 L21.7945752,8.94653857 L24.4516298,8.94653857 L31.649221,20.2474294 L39.0149802,8.94653857 L41.5038669,8.94653857 L32.7591299,22.5008808 L32.7591299,32.7591299 L30.5393121,32.7591299 L30.5393121,22.5008808 Z M63.8365797,29.0257999 C62.6930314,30.5729534 61.3701229,31.6828513 59.8678145,32.3555267 C58.365506,33.0282021 56.7398981,33.3645348 54.9909419,33.3645348 C53.1747183,33.3645348 51.5098715,33.0562299 49.9963518,32.4396107 C48.4828321,31.8229916 47.1879513,30.9597377 46.1116706,29.8498232 C45.0353899,28.7399088 44.1945582,27.4170002 43.5891503,25.881058 C42.9837424,24.3451157 42.681043,22.6690579 42.681043,20.8528343 C42.681043,19.0366106 42.9837424,17.3661583 43.5891503,15.8414273 C44.1945582,14.3166963 45.0353899,12.9993934 46.1116706,11.8894789 C47.1879513,10.7795644 48.4828321,9.91070501 49.9963518,9.2828746 C51.5098715,8.65504419 53.1747183,8.3411337 54.9909419,8.3411337 C56.605363,8.3411337 58.1132545,8.62701647 59.5146616,9.19879059 C60.9160688,9.77056471 62.143683,10.7291128 63.1975412,12.0744637 L61.3813266,13.5879759 C60.6413836,12.4668501 59.6940466,11.6484406 58.5392871,11.1327228 C57.3845276,10.617005 56.2017577,10.3591499 54.9909419,10.3591499 C53.4437884,10.3591499 52.0480078,10.6282161 50.8035583,11.1663564 C49.5591087,11.7044968 48.4996608,12.4444286 47.6251827,13.3861742 C46.7507047,14.3279199 46.0780393,15.4378177 45.6071665,16.715901 C45.1362937,17.9939843 44.9008608,19.3729483 44.9008608,20.8528343 C44.9008608,22.3327202 45.1362937,23.7116842 45.6071665,24.9897675 C46.0780393,26.2678508 46.7507047,27.3777486 47.6251827,28.3194943 C48.4996608,29.2612399 49.5591087,30.0011717 50.8035583,30.5393121 C52.0480078,31.0774524 53.4437884,31.3465186 54.9909419,31.3465186 C55.5963498,31.3465186 56.2241708,31.2736465 56.8744237,31.1279002 C57.5246767,30.9821538 58.1581032,30.757932 58.7747223,30.4552281 C59.3913415,30.1525241 59.9799237,29.7713471 60.5404865,29.3116856 C61.1010494,28.852024 61.5943373,28.2970751 62.0203651,27.6468222 L63.8365797,29.0257999 Z M67.5699097,8.94653857 L69.7897275,8.94653857 L69.7897275,30.7411137 L80.8888167,30.7411137 L80.8888167,32.7591299 L67.5699097,32.7591299 L67.5699097,8.94653857 Z M84.0503755,8.94653857 L98.6137258,8.94653857 L98.6137258,10.9645548 L86.2701933,10.9645548 L86.2701933,19.4402229 L97.840153,19.4402229 L97.840153,21.4582391 L86.2701933,21.4582391 L86.2701933,30.7411137 L99.1518635,30.7411137 L99.1518635,32.7591299 L84.0503755,32.7591299 L84.0503755,8.94653857 Z M102.817926,8.94653857 L110.68819,8.94653857 C112.594103,8.94653857 114.404694,9.15954926 116.120017,9.58557703 C117.835339,10.0116048 119.332019,10.7010868 120.610103,11.6540437 C121.888186,12.6070005 122.90279,13.8458259 123.653944,15.3705569 C124.405098,16.8952878 124.780669,18.7451175 124.780669,20.9201015 C124.780669,22.8484377 124.416309,24.5469177 123.687577,26.0155924 C122.958846,27.4842671 121.977875,28.7174869 120.744637,29.7152888 C119.511399,30.7130907 118.08759,31.4698392 116.473169,31.9855571 C114.858748,32.5012749 113.165874,32.7591299 111.394495,32.7591299 L102.817926,32.7591299 L102.817926,8.94653857 Z M108.064768,27.915891 L110.78909,27.915891 C111.999906,27.915891 113.126621,27.792569 114.169268,27.5459214 C115.211914,27.2992737 116.114407,26.890069 116.876773,26.3182948 C117.639138,25.7465207 118.238931,24.9953778 118.67617,24.0648434 C119.113409,23.134309 119.332026,21.9963835 119.332026,20.6510326 C119.332026,19.4850619 119.113409,18.4704583 118.67617,17.6071915 C118.238931,16.7439247 117.650349,16.0320205 116.910406,15.4714577 C116.170463,14.9108948 115.301604,14.490479 114.303802,14.2101975 C113.306,13.9299161 112.257763,13.7897775 111.15906,13.7897775 L108.064768,13.7897775 L108.064768,27.915891 Z M126.596884,8.94653857 L131.843726,8.94653857 L131.843726,32.7591299 L126.596884,32.7591299 L126.596884,8.94653857 Z M142.774647,8.94653857 L147.113382,8.94653857 L157.472532,32.7591299 L151.553018,32.7591299 L149.501368,27.7140894 L140.252127,27.7140894 L138.267745,32.7591299 L132.482765,32.7591299 L142.774647,8.94653857 Z M144.792664,15.8750609 L141.900174,23.2744537 L147.718787,23.2744537 L144.792664,15.8750609 Z M158.178838,8.94653857 L167.394445,8.94653857 C168.605261,8.94653857 169.754398,9.064255 170.84189,9.2996914 C171.929382,9.53512781 172.882324,9.92751592 173.700746,10.4768675 C174.519168,11.0262191 175.169411,11.766151 175.651495,12.6966854 C176.133579,13.6272197 176.374617,14.7875674 176.374617,16.1777633 C176.374617,17.8594519 175.937385,19.2888658 175.062907,20.4660478 C174.188429,21.6432298 172.910365,22.3887672 171.228676,22.7026824 L177.282725,32.7591299 L170.993241,32.7591299 L166.015468,23.2408201 L163.42568,23.2408201 L163.42568,32.7591299 L158.178838,32.7591299 L158.178838,8.94653857 Z M163.42568,18.8011844 L166.519972,18.8011844 C166.990844,18.8011844 167.489738,18.7843678 168.016667,18.750734 C168.543596,18.7171003 169.020067,18.6162004 169.446095,18.4480316 C169.872123,18.2798627 170.225272,18.0164021 170.505554,17.6576419 C170.785835,17.2988817 170.925974,16.7943827 170.925974,16.1441297 C170.925974,15.5387218 170.802652,15.056645 170.556004,14.6978848 C170.309356,14.3391246 169.995446,14.0644529 169.614263,13.8738615 C169.23308,13.6832701 168.795848,13.5543426 168.302553,13.4870751 C167.809257,13.4198075 167.32718,13.3861742 166.856308,13.3861742 L163.42568,13.3861742 L163.42568,18.8011844 Z M182.899537,22.6017816 L173.952998,8.94653857 L180.477917,8.94653857 L185.522958,17.8594435 L190.870701,8.94653857 L197.092917,8.94653857 L188.146379,22.6017816 L188.146379,32.7591299 L182.899537,32.7591299 L182.899537,22.6017816 Z" id="CYCLEDIARY" fill="#FFFFFF"></path>
                </g>
            </g>
        </g>
    </g>
</svg>